<?xml version="1.0" encoding="utf-8"?>
<!-- Generator: Adobe Illustrator 16.0.4, SVG Export Plug-In . SVG Version: 6.00 Build 0)  -->
<!DOCTYPE svg PUBLIC "-//W3C//DTD SVG 1.1 Basic//EN" "http://www.w3.org/Graphics/SVG/1.1/DTD/svg11-basic.dtd">
<svg version="1.1" baseProfile="basic" id="Calque_1"
	 xmlns="http://www.w3.org/2000/svg" xmlns:xlink="http://www.w3.org/1999/xlink" x="0px" y="0px" width="1280px" height="1600px"
	 viewBox="0 0 1280 1600" xml:space="preserve">
<g>
	<path fill-rule="evenodd" clip-rule="evenodd" d="M631.549,811.763c-3.029-2.406,6.703-5.263,8.143,2.549
		c1.289,6.703-3.029,10.699-11.809,11.338c-2.377,0.164-0.083,4.715,1.889,5.248c0.412-1.035,0.922-2.039,1.987-1.627
		c1.147,0.48,0.817,2.48-0.314,3.225c-1.065,0.711-2.399,0.059-3.628-0.773c-0.031,0.309,0.06,0.594-0.105,0.93
		c-1.17,2.107-4.544,1.822-5.496-0.32c-0.562-1.225-0.578-3.24,0.097-4.486c0.721-1.4,2.055-1.762,3.021-2.668
		c-4.416-1.283-8.165-4.117-11.658-6.156c-1.268-0.322-1.717,1.148-1.44,2.137c0.12-0.127,1.035,0.092,1.349,0.301
		c1.755,1.086-0.524,3.059-2.009,2.393c-1.319-0.594-1.575-2.266-1.717-3.33c-1.072,0.713-3.006-0.031-3.876-1.088
		c-1.095-1.865,1.005-4.229,2.445-4.971c1.994-0.988,4.214,0.428,6.238,1.814c-0.705-2.9-1.672-6.156-0.945-9.611
		c0.226-1.088,0.428-2.047,0.502-3.209c-0.202-1.126-0.735-3.578-3.779-4.942c-1.491-0.651-3.441,0.442-2.721,1.897
		c0.674,0.24,1.035,0.383,1.439,0.832c0.015,1.658-2.04,2.602-3.3,1.627c-2.211-1.739-0.389-4.738,0.3-5.219
		c-0.885-0.922-1.89,1.357-1.747,1.994c-2.857,0.384-3.419-2.195-3.337-3.014c0.12-1.371,1.08-2.887,2.01-3.283
		c2.204-0.938,4.88,0.352,6.785,1.455c-2.122-2.76-6.021-5.264-10.445-6.223c-1.042,1.213-2.099,1.581-2.144,3.125
		c-0.045,1.088,0.854,1.896,0.405,2.932c-0.66,1.568-3.419,1.2-4.454,0.465c-2.145-1.588-0.682-5.008,1.049-6.282
		c-1.222,0.308-2.52,0.778-3.628,1.769c-0.315,0.263-1.41,1.388-1.598,1.583c-0.577,0.697-1.341,1.911-1.792,2.788
		c-0.742,1.418-1.049,2.963-0.794,4.305c1.44,7.768,8.667,6.598,8.945,5.578c0.217-0.795-1.335-1.74-0.893-2.947
		c0.27-0.719,1.11-1.686,1.837-1.5c5.046,1.328,3.367,9.508-5,8.121c-1.56-0.264-2.691-1.02-3.689-1.792
		c-1.245-1.021-2.535-3.03-3.007-4.395c-0.757-2.158-0.405-5.008,0.277-7.287c0.195-0.593,0.51-1.042,0.706-1.583
		c0.164-0.494,1.079-2.076,1.334-2.391c0.45-0.555,0.735-1.328,1.184-1.837c-1.679,0.292-2.901,1.522-4.363,2.347
		c-1.155,0.607-2.467,0.848-3.502,1.642c-0.787,1.169-2.047,1.965-2.797,3.921c-0.389,1.043-0.509,2.662,0.218,3.157
		c1.019,0.704,3.516,0.239,2.946-1.29c-1.665-0.142-1.56-2.121-0.18-2.338c2.407,0.555,2.999,3.104,2.085,4.062
		c-3.097,3.217-6.292,0.046-6.569,0.105c-0.299,0.847,0.945,1.027,0.495,1.792c-0.615,1.063-4.664-0.945-4.858-1.808
		c-1.171-2.992,2.593-6.373,4.513-6.74c-2.992,0.78-8.862-3.696-10.31,0.322c-0.443,1.26,0.263,3.135,1.957,2.963
		c-0.285-0.908,0.188-2.183,1.162-1.771c0.487,0.202,1.155,1.372,0.817,2.024c-1.199,2.265-3.456,1.529-4.206,1.035
		c-0.908-0.547-1.058-1.627-1.567-2.07c-0.675,1.051,0.569,1.336,0.299,2.228c-1.29,0.353-2.639-1.29-3.224-2.1
		c-0.989-1.597,0.075-4.032,1.799-5.054c0.63-0.367,1.365-0.246,1.709-0.734c-1.619-0.639-2.151-1.814-3.614-2.856
		c-0.787-0.593-2.669-1.35-3.456-1.133c-0.66,0.165-1.808,1.936-1.005,2.521c0.511,0.419,1.177,0.037,1.688,0.465
		c0.337,0.27,0.509,0.967,0.239,1.469c-0.427,0.869-1.941,0.824-2.781,0.27c-1.222-0.771-1.372-2.646-0.713-4.258
		c-2.174,0.044-2.467-2.092-1.709-3.607c1.02-1.91,3.622-2.18,5.608-1.034c-0.81-2.602-1.049-5.608-4.835-6.838
		c-1.012,0.198-2.107,0.241-2.873,1.116c-0.104,0.668,0.346,0.668,0.038,1.306c-0.33,0.683-1.537,0.892-2.467,0.21
		c-0.6-0.439-0.915-1.516-0.689-2.295c0.802-2.489,3.583-1.852,5.637-1.566c-4.258-2.916-10.466-2.069-12.791,2.122
		c-1.522,2.76-0.757,5.45,2.459,6.605c1.859-0.12,0.63-2.077,0.855-3.083c0.299-1.428,1.874-1.824,3.043-1.33
		c1.919,0.795,2.459,2.83,1.32,4.727c-0.488,0.811-1.86,3.045-5.789,2.82c-1.748-0.127-3.254-1.515-4.079-2.678
		c-1.731-2.391-1.343-6.099,0.308-8.873c2.166-3.682,6.275-4.191,7.25-4.146c3.569,0.099,7.573,1.767,10.091,4.301
		c-0.135-1.469,0.226-4.457,1.41-5.305c6.208-4.518,8.345,6.012,1.86,3.254c-3.179,2.264-0.75,5.748,0,7.727
		c1.582-8.009,7.678-8.66,8.285-8.563c2.744,0.384,4.266,1.684,5.706,3.667c0.915,1.725,0.345,4.783-1.859,5.422
		c-1.14,0.321-2.669-0.271-3.329-1.459c-0.48-1.357,0.885-1.924,1.649-2.632c-0.359-1.047-3.27-2.988-5.848-1.541
		c-4.455,3.097-3.225,8.435-3.375,8.607c1.2,1.38,1.694,3.038,3.284,4.282c-0.345-0.99-0.779-1.456-0.734-2.4
		c0.119-2.451,3.494-4.318,5.113-2.422c0.345,0.436,0.3,1.117,0.045,1.516c-0.637,0.891-1.979,0.052-2.961,0.396
		c-1.883,5.092,6.11,5.541,9.447,5.998c0.248,0.098,7.265-0.578,8.472-2.646c-1.904-0.187-4.955-0.494-5.81-2.316
		c-0.825-1.844,0.704-3.291,2.534-3.742c-0.375-1.461,0.967-3.425,2.31-3.764c1.544-0.34,3.824,0.923,3.868,2.28
		c0,0.704-0.839,1.724-1.499,1.642c-1.695-0.256-0.766-1.883-0.826-1.957c-1.139-0.735-1.994,0.968-1.859,1.739
		c0.908,5.593,8.053,4.433,9.47,4.363c1.927-0.817,4.056-1.064,6.141-1.387c-2.714-1.604-3.689-3.89-3.914-6.47
		c0.225-2.295,1.2-4.5,3.254-4.5c2.092,0.016,2.474,1.924,2.759,3.168c0.54-0.044,1.05-0.463,1.65-0.562
		c0.502-0.075,2.055,0.067,2.444,0.267c2.25,1.131,1.08,5.645-1.754,4.49c-0.503-0.727-0.615-1.799,0.307-2.535
		c-0.397-0.044-0.832-0.175-1.206-0.131c-2.707,1.631-1.328,5.943,0.359,7.068c0.577,0.389,1.357,0.389,1.995,0.66
		c2.083,0.891,4.034,2.166,5.578,3.328c-0.6-2.295-1.59-5.93-0.42-8.562c0.254-0.6,1.679-1.953,2.159-2.238
		c1.77-1.076,7.213-0.705,7.348,2.208c0.104,2.466-2.272,2.093-3.494,3.013c1.694-0.336,4.604,1.096,4.806,2.806
		c-0.503,1.485-2.001,2.406-3.247,1.343c-0.524-0.45-0.374-1.658-0.922-1.966c-1.02-0.606-3.081,0.577-3.592,1.868
		c-1.634,4.176,2.587,8.053,3.134,9.402c0.405-9.613,8.383-6.831,8.503-4.32c0.059,1.201-1.484,1.628-2.25,2.182
		c-1.417,0.113-2.887-0.313-3.756,1.141c-0.563,0.982-1.252,2.406-1.02,3.516c2.766-3.568,6.831-4.887,11.426-3.328
		c1.327,0.449,2.482,1.02,3.876,1.598c0.6-0.495,1.65-0.083,1.919-0.849c0.314-0.832-1.575-1.573-0.525-2.602
		c2.594,0.354,4.154,2.459,3.27,4.274c-0.832,1.777-2.924,1.103-4.844,0.465c0.728,0.397,2.04,9.109-6.081,8.256
		c-0.938-0.113-2.52-1.485-3.007-2.407c-0.037-0.136-0.877-1.657,0-3.39c1.29-2.572,4.979-2.557,5.864,0.383
		c-0.278,0.495-0.405,0.952-0.03,1.207c0.674-0.607,0.944-0.697,1.086-1.334c0.472-2.543-3.861-4.471-6.283-4.215
		c-0.674,0.068-1.499,0.584-2.451,1.102c-2.107,1.148-3.877,3.555-4.679,6.171c-0.307,1.036-0.181,1.868-0.165,2.888
		c0.015,0.682-0.113,1.334,0.015,2.002c0.27,1.342,0.465,2.615,1.02,3.801c1.342,2.857,3.817,5.76,7.318,6.344
		c-1.732-1.529-3.667-3.75-2.849-6.373c0.51-1.65,1.694-2.279,2.917-2.871c1.912-0.166,4.379,0.906,4.409,2.803
		c-0.495,1.74-2.316,2.332-3.389,0.975c-0.083-0.42,0.352-1.043,0.413-1.387c-1.59-0.961-3.434,1.484-2.182,3.201
		c0.66,0.908,2.759,3.068,3.771,3.623c1.454,0.809,3.074,1.229,4.154,0.936C639.864,819.897,635.223,813.833,631.549,811.763z"/>
	<path fill-rule="evenodd" clip-rule="evenodd" d="M647.902,811.763c3.028-2.406-6.711-5.263-8.143,2.549
		c-1.282,6.703,3.036,10.699,11.809,11.338c2.384,0.164,0.09,4.715-1.882,5.248c-0.413-1.035-0.923-2.039-1.987-1.627
		c-1.146,0.48-0.832,2.48,0.314,3.225c1.065,0.711,2.385,0.059,3.629-0.773c0.016,0.309-0.059,0.594,0.105,0.93
		c1.17,2.107,4.544,1.822,5.496-0.32c0.562-1.225,0.578-3.24-0.09-4.486c-0.727-1.4-2.076-1.762-3.037-2.668
		c4.424-1.283,8.172-4.117,11.659-6.156c1.274-0.322,1.717,1.148,1.432,2.137c-0.119-0.127-1.02,0.092-1.349,0.301
		c-1.755,1.086,0.539,3.059,2.023,2.393c1.312-0.594,1.575-2.266,1.717-3.33c1.072,0.713,2.992-0.031,3.877-1.088
		c1.095-1.865-1.005-4.229-2.444-4.971c-2.009-0.988-4.222,0.428-6.245,1.814c0.712-2.9,1.679-6.156,0.952-9.611
		c-0.226-1.088-0.442-2.047-0.511-3.209c0.203-1.126,0.742-3.578,3.787-4.942c1.492-0.651,3.426,0.442,2.714,1.897
		c-0.667,0.24-1.027,0.383-1.447,0.832c0,1.658,2.04,2.602,3.3,1.627c2.227-1.739,0.404-4.738-0.285-5.219
		c0.885-0.922,1.889,1.357,1.746,1.994c2.857,0.384,3.404-2.195,3.338-3.014c-0.121-1.371-1.08-2.887-2.01-3.283
		c-2.205-0.938-4.881,0.352-6.793,1.455c2.129-2.76,6.027-5.264,10.437-6.223c1.058,1.213,2.099,1.581,2.159,3.125
		c0.045,1.088-0.854,1.896-0.404,2.932c0.645,1.568,3.418,1.2,4.453,0.465c2.13-1.588,0.668-5.008-1.049-6.282
		c1.221,0.308,2.519,0.778,3.628,1.769c0.3,0.263,1.41,1.388,1.591,1.583c0.584,0.697,1.348,1.911,1.791,2.788
		c0.75,1.418,1.043,2.963,0.803,4.305c-1.455,7.768-8.683,6.598-8.953,5.578c-0.21-0.795,1.342-1.74,0.885-2.947
		c-0.254-0.719-1.095-1.686-1.821-1.5c-5.046,1.328-3.358,9.508,5.001,8.121c1.559-0.264,2.691-1.02,3.674-1.792
		c1.26-1.021,2.549-3.03,3.021-4.395c0.758-2.158,0.404-5.008-0.277-7.287c-0.195-0.593-0.525-1.042-0.705-1.583
		c-0.18-0.494-1.08-2.076-1.35-2.391c-0.435-0.555-0.721-1.328-1.17-1.837c1.664,0.292,2.902,1.522,4.364,2.347
		c1.14,0.607,2.452,0.848,3.494,1.642c0.794,1.169,2.054,1.965,2.79,3.921c0.404,1.043,0.523,2.662-0.203,3.157
		c-1.013,0.704-3.518,0.239-2.947-1.29c1.664-0.142,1.545-2.121,0.18-2.338c-2.406,0.555-3.006,3.104-2.084,4.062
		c3.089,3.217,6.291,0.046,6.561,0.105c0.307,0.847-0.945,1.027-0.503,1.792c0.631,1.063,4.665-0.945,4.858-1.808
		c1.171-2.992-2.578-6.373-4.505-6.74c2.991,0.78,8.869-3.696,10.315,0.322c0.443,1.26-0.262,3.135-1.956,2.963
		c0.285-0.908-0.194-2.183-1.177-1.771c-0.473,0.202-1.147,1.372-0.803,2.024c1.199,2.265,3.457,1.529,4.206,1.035
		c0.907-0.547,1.058-1.627,1.567-2.07c0.674,1.051-0.577,1.336-0.307,2.228c1.297,0.353,2.639-1.29,3.23-2.1
		c0.998-1.597-0.067-4.032-1.799-5.054c-0.63-0.367-1.365-0.246-1.717-0.734c1.626-0.639,2.158-1.814,3.606-2.856
		c0.802-0.593,2.677-1.35,3.471-1.133c0.653,0.165,1.808,1.936,1.005,2.521c-0.51,0.419-1.191,0.037-1.688,0.465
		c-0.337,0.27-0.523,0.967-0.254,1.469c0.435,0.869,1.957,0.824,2.797,0.27c1.221-0.771,1.371-2.646,0.711-4.258
		c2.175,0.044,2.46-2.092,1.711-3.607c-1.021-1.91-3.629-2.18-5.609-1.034c0.803-2.602,1.049-5.608,4.829-6.838
		c1.019,0.198,2.114,0.241,2.864,1.116c0.119,0.668-0.33,0.668-0.03,1.306c0.337,0.683,1.528,0.892,2.466,0.21
		c0.607-0.439,0.916-1.516,0.697-2.295c-0.801-2.489-3.59-1.852-5.637-1.566c4.258-2.916,10.467-2.069,12.791,2.122
		c1.514,2.76,0.749,5.45-2.46,6.605c-1.874-0.12-0.63-2.077-0.854-3.083c-0.3-1.428-1.875-1.824-3.044-1.33
		c-1.919,0.795-2.46,2.83-1.319,4.727c0.479,0.811,1.866,3.045,5.779,2.82c1.756-0.127,3.263-1.515,4.087-2.678
		c1.725-2.391,1.327-6.099-0.307-8.873c-2.167-3.682-6.269-4.191-7.267-4.146c-3.561,0.099-7.557,1.767-10.091,4.301
		c0.149-1.469-0.21-4.457-1.396-5.305c-6.208-4.518-8.345,6.012-1.859,3.254c3.18,2.264,0.75,5.748,0,7.727
		c-1.581-8.009-7.677-8.66-8.284-8.563c-2.753,0.384-4.267,1.684-5.706,3.667c-0.914,1.725-0.359,4.783,1.875,5.422
		c1.124,0.321,2.646-0.271,3.32-1.459c0.458-1.357-0.906-1.924-1.656-2.632c0.359-1.047,3.27-2.988,5.848-1.541
		c4.454,3.097,3.21,8.435,3.367,8.607c-1.2,1.38-1.688,3.038-3.291,4.282c0.359-0.99,0.793-1.456,0.733-2.4
		c-0.104-2.451-3.479-4.318-5.104-2.422c-0.338,0.436-0.309,1.117-0.039,1.516c0.646,0.891,1.98,0.052,2.962,0.396
		c1.882,5.092-6.11,5.541-9.454,5.998c-0.24,0.098-7.258-0.578-8.473-2.646c1.912-0.187,4.964-0.494,5.811-2.316
		c0.832-1.844-0.697-3.291-2.526-3.742c0.383-1.461-0.975-3.425-2.31-3.764c-1.559-0.34-3.839,0.923-3.869,2.28
		c-0.014,0.704,0.84,1.724,1.484,1.642c1.709-0.256,0.78-1.883,0.826-1.957c1.153-0.735,1.994,0.968,1.881,1.739
		c-0.914,5.593-8.061,4.433-9.492,4.363c-1.912-0.817-4.041-1.064-6.126-1.387c2.714-1.604,3.688-3.89,3.915-6.47
		c-0.227-2.295-1.201-4.5-3.255-4.5c-2.091,0.016-2.474,1.924-2.759,3.168c-0.54-0.044-1.051-0.463-1.649-0.562
		c-0.511-0.075-2.054,0.067-2.444,0.267c-2.264,1.131-1.095,5.645,1.755,4.49c0.487-0.727,0.614-1.799-0.3-2.535
		c0.389-0.044,0.824-0.175,1.191-0.131c2.714,1.631,1.334,5.943-0.367,7.068c-0.577,0.389-1.342,0.389-1.98,0.66
		c-2.1,0.891-4.033,2.166-5.577,3.328c0.599-2.295,1.589-5.93,0.419-8.562c-0.254-0.6-1.68-1.953-2.174-2.238
		c-1.755-1.076-7.197-0.705-7.332,2.208c-0.105,2.466,2.264,2.093,3.493,3.013c-1.694-0.336-4.604,1.096-4.806,2.806
		c0.486,1.485,1.986,2.406,3.246,1.343c0.525-0.45,0.375-1.658,0.922-1.966c1.005-0.606,3.082,0.577,3.577,1.868
		c1.649,4.176-2.572,8.053-3.134,9.402c-0.391-9.613-8.369-6.831-8.48-4.32c-0.067,1.201,1.477,1.628,2.227,2.182
		c1.432,0.113,2.902-0.313,3.764,1.141c0.57,0.982,1.253,2.406,1.027,3.516c-2.766-3.568-6.846-4.887-11.426-3.328
		c-1.327,0.449-2.482,1.02-3.877,1.598c-0.6-0.495-1.664-0.083-1.935-0.849c-0.308-0.832,1.589-1.573,0.525-2.602
		c-2.579,0.354-4.14,2.459-3.255,4.274c0.832,1.777,2.91,1.103,4.844,0.465c-0.728,0.397-2.055,9.109,6.08,8.256
		c0.938-0.113,2.52-1.485,3.008-2.407c0.029-0.136,0.877-1.657,0-3.39c-1.29-2.572-4.979-2.557-5.863,0.383
		c0.277,0.495,0.39,0.952,0.014,1.207c-0.674-0.607-0.943-0.697-1.071-1.334c-0.472-2.543,3.854-4.471,6.276-4.215
		c0.674,0.068,1.491,0.584,2.459,1.102c2.106,1.148,3.875,3.555,4.664,6.171c0.322,1.036,0.195,1.868,0.164,2.888
		c-0.008,0.682,0.12,1.334-0.008,2.002c-0.262,1.342-0.457,2.615-1.012,3.801c-1.356,2.857-3.832,5.76-7.332,6.344
		c1.73-1.529,3.688-3.75,2.863-6.373c-0.51-1.65-1.695-2.279-2.916-2.871c-1.928-0.166-4.387,0.906-4.424,2.803
		c0.51,1.74,2.332,2.332,3.389,0.975c0.098-0.42-0.338-1.043-0.398-1.387c1.575-0.961,3.436,1.484,2.168,3.201
		c-0.645,0.908-2.744,3.068-3.756,3.623c-1.455,0.809-3.082,1.229-4.154,0.936C639.594,819.897,644.221,813.833,647.902,811.763z"/>
</g>
</svg>
